<?xml version="1.0" encoding="UTF-8"?>
<svg id="Livello_1" xmlns="http://www.w3.org/2000/svg" version="1.1" viewBox="0 0 1353 1016.91">
  <!-- Generator: Adobe Illustrator 30.2.1, SVG Export Plug-In . SVG Version: 2.1.1 Build 1)  -->
  <defs>
    <style>
      .st0 {
        fill: #fff;
      }
    </style>
  </defs>
  <path class="st0" d="M1248.27,1016.91c4.53,0,7.7-.94,11.1-1.25,55.57-4.96,86.62-29.75,93.63-87.18V87.51c-6.25-54.62-34.58-80.77-88.46-87.51h-202.07c-57.24,7.36-84.46,37.24-88.2,94.66v826.69c1.43,15.46,3.57,29.81,9.75,43.62,16.04,35.85,48.07,47.35,84.61,50.76,2.99.28,6.11,1.17,9.53,1.17h170.11ZM771.8,1015.71c15.62-1.48,29.95-4.03,43.91-10.15,36.31-15.94,48.91-49.68,50.43-87.8V260.26c0-42.54-16.03-81.11-58.54-94.98-14.49-4.72-28.99-7.45-44.76-7.45l-173.67.02c-15.43,0-29.6,2.85-43.74,7.52-41.72,13.78-57.83,51.97-57.82,93.89v656.48c0,16.35,2.64,31.55,8.37,46.35,14.09,36.45,47.88,50.85,84.65,53.46,3.77.71,7.35,1.35,11.54,1.35h169.69c3.37,0,6.54-.88,9.95-1.2h-.01Z"/>
  <path class="st0" d="M1248.27,1016.91h-170.11c-3.42,0-6.54-.89-9.53-1.17-36.54-3.41-68.57-14.92-84.61-50.76-6.18-13.82-8.32-28.16-9.75-43.62V94.66c3.74-57.41,30.96-87.29,88.19-94.66h202.07c53.88,6.74,82.21,32.89,88.46,87.51v840.97c-7.01,57.43-38.06,82.21-93.62,87.18-3.4.3-6.57,1.25-11.1,1.25Z"/>
  <g>
    <path class="st0" d="M0,921.99V408.99c0-15.81,5.35-32.56,12.17-46.87,8.58-18.02,23.87-30.78,42.25-37.8,13.56-5.18,27.68-8.55,42.7-8.56l183.92-.04c15.3,0,29.65,3.38,43.52,8.59,22.84,8.58,39.87,26.37,47.43,49.59,3.67,11.28,6.72,22.97,6.72,35.42l-.03,513.36c0,13.67-3.66,26.62-8.15,38.77-7.87,21.32-24.07,36.92-44.86,45.35-13.07,5.3-26.35,7.44-40.3,8.9-3.77.4-7.37,1.21-11.54,1.21H105.16c-4.15,0-7.73-.82-11.5-1.19-35.57-3.51-66.54-14.34-82.93-48.81C3.85,952.43,1.9,937.32,0,922h0Z"/>
    <path class="st0" d="M771.8,1015.71c-3.41.32-6.58,1.2-9.95,1.2h-169.69c-4.19,0-7.77-.64-11.54-1.35-36.77-2.61-70.56-17.02-84.65-53.46-5.72-14.8-8.36-30-8.36-46.35V259.26c0-41.91,16.1-80.11,57.82-93.89,14.13-4.67,28.31-7.52,43.74-7.52l173.67-.02c15.78,0,30.27,2.73,44.76,7.45,42.52,13.86,58.54,52.44,58.54,94.98v657.5c-1.51,38.12-14.11,71.86-50.42,87.8-13.96,6.13-28.29,8.68-43.91,10.15h-.01Z"/>
  </g>
</svg>