<?xml version="1.0" encoding="UTF-8"?>
<svg id="Livello_1" data-name="Livello 1" xmlns="http://www.w3.org/2000/svg" viewBox="0 0 779.5 46.4">
  <defs>
    <style>
      .cls-1 {
        fill: #0d8fb5;
      }

      .cls-2 {
        fill: #fff;
      }

      .cls-3 {
        fill: #b2b2b2;
      }
    </style>
  </defs>
  <path class="cls-3" d="M0,46.4L16.8,0h2.7L2.7,46.4H0Z"/>
  <path class="cls-3" d="M37.55,13l5.65-3.45,1.25,2.1-5.8,3.2,5.8,3.15-1.25,2.15-5.65-3.45.15,6.6h-2.45l.15-6.55-5.65,3.4-1.2-2.15,5.8-3.15-5.8-3.2,1.2-2.1,5.65,3.45-.15-6.65h2.45l-.15,6.65Z"/>
  <path class="cls-2" d="M94.95,6.1v5.05h-15.35v9.9h13.85v5h-13.85v14.55h-5.8V6.1h21.15Z"/>
  <path class="cls-2" d="M111.35,40.6h-5.8V6.1h5.8v34.5Z"/>
  <path class="cls-2" d="M142.35,14.45c-1.7-2.35-3.55-3.75-7.45-3.75-3.55,0-5.65,1.6-5.65,4.5,0,3.3,2.6,4.6,7.4,5.65,6.95,1.5,10.55,4.1,10.55,10.3,0,5.15-3.45,9.9-11.75,9.9-5.9,0-10.05-1.8-12.9-5.65l4.55-3.15c2.05,2.45,4.1,3.75,8.05,3.75,4.75,0,6.25-2.1,6.25-4.6,0-2.75-1.55-4.45-7.55-5.75-6.65-1.4-10.4-4.6-10.4-10.45,0-5.2,3.4-9.55,11.5-9.55,5.5,0,9.35,1.85,11.8,5.65l-4.4,3.15Z"/>
  <path class="cls-2" d="M163.85,20.25h13.2V6.1h5.8v34.5h-5.8v-15.35h-13.2v15.35h-5.8V6.1h5.8v14.15Z"/>
  <path class="cls-2" d="M216.6,6.1v5.05h-15.35v9.1h13.85v5h-13.85v10.35h15.35v5h-21.15V6.1h21.15Z"/>
  <path class="cls-2" d="M246.25,40.6l-6.65-14h-6.7v14h-5.8V6.1h11.75c7.95,0,12.7,3.45,12.7,10.3,0,4.75-2.25,7.8-6.25,9.25l7.35,14.95h-6.4ZM238.45,21.6c4.9,0,7.3-1.3,7.3-5.2s-2.4-5.25-7.3-5.25h-5.55v10.45h5.55Z"/>
  <path class="cls-2" d="M278.1,26.1l9.95-20h5.55v34.5h-5.6v-23.1l-7.9,16.45h-4.1l-7.75-16.3v22.95h-5.6V6.1h5.5l9.95,20Z"/>
  <path class="cls-2" d="M302.5,40.6l12-34.5h5.5l12,34.5h-6.15l-2.35-7.15h-12.45l-2.35,7.15h-6.2ZM312.65,28.45h9.2l-4.6-13.95-4.6,13.95Z"/>
  <path class="cls-2" d="M365.75,6.1v34.5h-5.15l-14.05-23.45v23.45h-5.6V6.1h5l14.2,23.75V6.1h5.6Z"/>
  <path class="cls-2" d="M382.8,13.25l-5.65,4.8V4.55h5.65v8.7Z"/>
  <path class="cls-2" d="M413.15,14.45c-1.7-2.35-3.55-3.75-7.45-3.75-3.55,0-5.65,1.6-5.65,4.5,0,3.3,2.6,4.6,7.4,5.65,6.95,1.5,10.55,4.1,10.55,10.3,0,5.15-3.45,9.9-11.75,9.9-5.9,0-10.05-1.8-12.9-5.65l4.55-3.15c2.05,2.45,4.1,3.75,8.05,3.75,4.75,0,6.25-2.1,6.25-4.6,0-2.75-1.55-4.45-7.55-5.75-6.65-1.4-10.4-4.6-10.4-10.45,0-5.2,3.4-9.55,11.5-9.55,5.5,0,9.35,1.85,11.8,5.65l-4.4,3.15Z"/>
  <path class="cls-1" d="M461.35,29.05l11.45-22.95h2.85v34.5h-2.9V12.45l-10.15,20.45h-2.6l-10.05-20.4v28.1h-2.9V6.1h2.8l11.5,22.95Z"/>
  <path class="cls-1" d="M509.95,6.1v2.7h-17.4v12.6h15.9v2.7h-15.9v13.8h17.4v2.7h-20.3V6.1h20.3Z"/>
  <path class="cls-1" d="M536.1,29.05l11.45-22.95h2.85v34.5h-2.9V12.45l-10.15,20.45h-2.6l-10.05-20.4v28.1h-2.9V6.1h2.8l11.5,22.95Z"/>
  <path class="cls-1" d="M574.9,40.9c-7.4,0-12.25-4.6-12.25-15.5v-4.1c0-10.85,4.85-15.5,12.25-15.5s12.25,4.65,12.25,15.5v4.1c0,10.9-4.85,15.5-12.25,15.5ZM565.55,25.4c0,9.35,3.7,12.8,9.35,12.8s9.35-3.45,9.35-12.8v-4.1c0-9.3-3.7-12.8-9.35-12.8s-9.35,3.5-9.35,12.8v4.1Z"/>
  <path class="cls-1" d="M620.1,40.6l-7.65-14.75c-.75.1-1.5.1-2.3.1h-7.85v14.65h-2.9V6.1h10.75c7.8,0,12.3,3.4,12.3,9.95,0,4.9-2.55,8.05-7.1,9.3l8,15.25h-3.25ZM610.15,23.25c6.05,0,9.4-2.05,9.4-7.2s-3.35-7.25-9.4-7.25h-7.85v14.45h7.85Z"/>
  <path class="cls-1" d="M638,40.6h-2.9V6.1h2.9v34.5Z"/>
  <path class="cls-1" d="M672.8,6.1v2.7h-17.4v12.6h15.9v2.7h-15.9v13.8h17.4v2.7h-20.3V6.1h20.3Z"/>
  <path class="cls-1" d="M703.15,13.1c-1.8-2.65-4.2-4.6-8.95-4.6s-7.9,1.95-7.9,6.2c0,4.95,3.95,6.2,8.95,7.3,6.5,1.4,10.8,3.4,10.8,9.9,0,4.4-3.1,9-11.35,9-5.5,0-9.5-1.9-12.05-5.65l2.35-1.65c2.15,2.7,4.55,4.6,9.7,4.6,6.15,0,8.45-2.85,8.45-6.2,0-4.15-2.4-6.15-8.9-7.4-6.45-1.25-10.85-3.75-10.85-9.9,0-4.85,3.15-8.9,10.9-8.9,5.35,0,8.75,1.85,11.15,5.65l-2.3,1.65Z"/>
  <path class="cls-3" d="M742.74,13l5.65-3.45,1.25,2.1-5.8,3.2,5.8,3.15-1.25,2.15-5.65-3.45.15,6.6h-2.45l.15-6.55-5.65,3.4-1.2-2.15,5.8-3.15-5.8-3.2,1.2-2.1,5.65,3.45-.15-6.65h2.45l-.15,6.65Z"/>
  <path class="cls-3" d="M759.99,46.4L776.79,0h2.7l-16.8,46.4h-2.7Z"/>
</svg>