<?xml version="1.0" encoding="UTF-8"?>
<svg id="Livello_1" xmlns="http://www.w3.org/2000/svg" version="1.1" viewBox="0 0 815.87 996.38">
  <!-- Generator: Adobe Illustrator 30.2.1, SVG Export Plug-In . SVG Version: 2.1.1 Build 1)  -->
  <defs>
    <style>
      .st0 {
        fill: #fff;
      }
    </style>
  </defs>
  <path class="st0" d="M539.26,726.82h-261.03c-19.99,0-39.15-7.42-45.88-27.17-2.22-6.52-4.37-13.48-4.38-20.94l-.04-213.73c0-7.6,1.75-14.49,3.9-21.25,6.26-19.73,23.32-27.11,42.53-28.4l.32-68.44c.12-26.27,6.2-51.23,18.04-74.35,17.04-33.27,46.84-56.7,83.39-64.73,59.27-13.03,119.63,9.03,148.16,64.73,11.84,23.11,17.92,48.05,18.04,74.27l.33,68.54c18.96,1.75,32.31,6.65,41.07,24.75,2.69,8.37,5.1,16.63,5.1,26.02v209.44c0,8.71-1.87,16.78-4.56,24.5-6.57,18.82-24.74,26.77-44.99,26.77h0ZM496.41,414.94l-.03-70.05c-.64-18.68-4.16-36.18-12.92-52.41-12.83-24.32-35.88-40.06-63.25-43.14-37.43-4.22-70.27,11.14-87.97,44.87-7.23,14.99-11.76,30.67-11.82,47.71l-.26,73.04h176.25v-.02Z"/>
  <path class="st0" d="M0,603.83V197.83c0-11.92,3.98-24.88,8.8-35.82,9.06-20.57,33.7-34.08,54-41.74l229-86.45,78.99-27c25.06-8.57,48.58-9.42,74.01-.54,101.29,35.36,201.38,72.31,301.4,111.02,23.23,8.99,51.88,22.53,61.94,46.36,4.19,9.93,7.75,21.12,7.74,32.68l-.3,410.84c-.02,28.47-5.94,56.12-14.58,82.68-24.54,75.42-91.86,129.6-155.22,172.7-29.19,19.86-58.22,38.47-88.8,56.24l-115.72,67.24c-10.18,5.92-21.28,10.51-33.29,10.34-10.36-.14-20.97-3.47-30-8.76l-113.96-66.7c-31.54-18.46-61.59-37.7-91.77-58.18-40.46-27.45-82.05-59.31-113.38-96.77-19.09-22.84-33.56-47.74-43.46-75.78S2.31,633.02,0,603.84h0ZM387.16,914.07c14.88,9.15,28.54,8.34,42.62-.39l125.41-77.78c28.98-17.97,56.57-36.55,83.72-57.01,73.03-55.02,109.86-107.12,109.87-202.2l.04-358.59c0-15.15-3.24-28.07-18.58-33.75l-306.85-113.67c-10.56-3.91-21.06-3.48-31.37.36l-97.62,36.38-120.78,43.94-88.59,33.58c-10.88,4.12-16.07,13.38-17.39,25.12l.05,377.55c0,16.14,2.35,30.85,5.29,46.33,9.91,52.2,38.93,90.6,78.41,124.54,34.15,29.35,84,62.25,122.85,86.14l112.92,69.46h0Z"/>
</svg>