<?xml version="1.0" encoding="UTF-8"?>
<svg id="Livello_1" xmlns="http://www.w3.org/2000/svg" version="1.1" viewBox="0 0 1075 1020.87">
  <!-- Generator: Adobe Illustrator 30.2.1, SVG Export Plug-In . SVG Version: 2.1.1 Build 1)  -->
  <defs>
    <style>
      .st0 {
        fill: #fff;
      }
    </style>
  </defs>
  <path class="st0" d="M0,955.28V230.28c0-22.98,15.44-46.35,35.07-57.83L290.51,23.06c10.95-6.4,21.82-11.81,33.54-16.64l-.05,860.2-237.48,129.05c-17.65,8.28-36.58,10.49-54.89,3.98C10.13,991.57,3.35,975.68,0,955.29h0Z"/>
  <path class="st0" d="M1075,794.78c-3.23,27.28-17.07,46.8-40.51,60.23l-275.55,157.9c-4.94,2.76-9.32,4.95-15.05,6.22l.05-856.93L988.87,27.12c17.89-8.47,37-10.72,55.5-4.02,12.34,4.69,21.99,13.78,26.45,26.42,1.83,5.2,4.17,11.01,4.17,17.11v728.16h.01Z"/>
  <path class="st0" d="M677.98,1020.87c-7.84-1.24-14.77-5.04-22.24-8.72l-266.09-152.65-.02-859.5c11.05,1.82,20.41,6.59,29.89,11.91l258.44,158.17.02,850.79h0Z"/>
</svg>