<?xml version="1.0" encoding="UTF-8"?>
<svg id="Livello_1" xmlns="http://www.w3.org/2000/svg" version="1.1" viewBox="0 0 1052.94 1019.7">
  <!-- Generator: Adobe Illustrator 30.2.1, SVG Export Plug-In . SVG Version: 2.1.1 Build 1)  -->
  <defs>
    <style>
      .st0 {
        fill: #fff;
      }
    </style>
  </defs>
  <path class="st0" d="M433.05,907.85c-5.3,9.22-16.52,10.8-24.95,6.58-7.56-3.79-13.71-14.52-8.48-23.66l51.82-90.55c5.31-9.27,16.11-11.78,24.56-7.58,9.02,4.48,14.4,15.48,8.87,25.09l-51.82,90.12h0Z"/>
  <path class="st0" d="M704.42,109.86l-.03-84.51c0-14.19-11.28-24.76-24.34-25.33s-26.44,8.95-26.44,23.26v89.08c0,13.8,13.77,23.83,26.41,23.14,13.13-.71,24.41-11.29,24.4-25.64h0ZM510.61,171.76l-63-63.24c-9.59-9.62-25.78-7.35-34.36,1.72s-10.42,24.75-.79,34.4l62.88,62.94c9.58,9.58,25.9,7.58,34.48-1.54,8.41-8.94,10.54-24.47.79-34.27h0ZM883.07,206.98l61.63-61.64c9.68-9.69,8.8-25.16.07-34.76-8.31-9.14-24.6-12.1-34.32-2.4l-63.96,63.86c-9.74,9.73-7.6,25.81,1.43,34.57s25.16,10.36,35.14.37h.01ZM766.76,529.64c54.33-31.38,88.69-88.6,89.83-151.37,1.01-55.55-24.32-107.87-67.38-142.4-48.93-39.31-114.68-49.93-173.46-27.47-39.4,15.21-72.13,43.59-92.82,80.83,15.48,15.89,28.31,32.65,39.76,50.97,103.97,9.6,191.78,82.3,204.08,189.45h-.01ZM547.09,730.99c100.2.01,181.17-76.59,181.4-176.77.12-51.83-22.59-100.25-63.2-132.53-35.8-28.82-80.31-42.12-126.11-42.77-37.08-71.2-100.68-120.37-181.44-128.96-129.26-14.48-241.76,82.75-253.63,211-56.04,16.46-96.64,60.29-102.72,119.18-2.36,10.9-1.25,20.55-.08,31.32,4.91,45.3,31.42,83.81,72.82,103.4,22.19,10.5,46.45,16.08,71.66,16.08l401.29.05h.01ZM1052.56,370.7c-1.96-12.01-12.31-20.89-24.37-20.85l-87.61.3c-13.69.05-23.53,13.51-23.24,25.58.31,12.87,10.58,24.83,24.31,24.84l86.93.04c15.76,0,26.54-14.1,23.97-29.9h.01ZM945.61,606.73l-62.49-62.97c-9.34-9.41-25.51-8.83-34.98-.1-10.34,9.53-10.72,26.05-.77,36l61.43,61.46c9.51,9.52,24.96,8.65,34.47.12,9.21-8.26,12.27-24.51,2.34-34.51h0ZM142.81,907.66l51.33-88.76c5.3-9.16,1.36-19.94-7.07-25.09-8.93-5.45-20.24-3.15-25.72,6.36l-52.12,90.38c-5.35,9.27.43,20.28,8.92,24.45s19.29,1.96,24.67-7.34h0ZM257.4,1010.43l51-88.37c5.3-9.18,2.39-19.68-6.44-25.32-8.29-5.29-20.15-3.88-25.56,5.48l-52.6,91.1c-5.34,9.24.52,20.22,8.83,24.36s19.41,2.03,24.77-7.25h0ZM547.62,1010.61l51.73-89.61c5.63-9.76.55-20.76-8.37-25.45s-19.82-1.63-25.29,7.92l-51.55,90.08c-5.21,9.1.95,19.85,8.89,23.79s19.3,2.42,24.58-6.73h0Z"/>
</svg>