<?xml version="1.0" encoding="UTF-8"?>
<svg id="Livello_1" data-name="Livello 1" xmlns="http://www.w3.org/2000/svg" viewBox="0 0 1110 1183">
  <defs>
    <style>
      .cls-1 {
        fill: #fff;
      }
    </style>
  </defs>
  <path class="cls-1" d="M568,0c41.36,5.01,77.94,22.19,106.44,54.66,31.25,35.61,45.35,83.27,37.47,130.2-10.85,61.81-57.1,111.37-117.92,127.2v59.93s238.51.04,238.51.04c17.46,2.15,33.25,4.92,49.14,11.26,48.82,19.48,79.88,62.56,92.5,112.72l34.96,138.92,48.79,194.17,43.7,174.14c3.49,13.91,6.2,26.6,7.47,40.82.13,1.5.48,3.33.94,3.95v32c-.41.65-.69,2.39-.89,4.02-8.03,64.81-54.5,93.92-116.15,98.09-1.57.11-3.35.41-3.96.89H120c-.63-.48-2.36-.77-4-.89-61.37-4.7-108.35-34.01-115.09-99.1-.17-1.62-.47-3.37-.92-4.01v-29l7.24-41.97,44.68-178.19,84.18-335.54c7.21-28.73,23.1-58.63,43.87-79.34,26.38-26.3,58.41-38.7,95.75-42.86l240.29-.1v-59.96c-64.51-16.64-112.44-71.77-119.11-137.95-1.17-10.54-1.19-19.67.03-30.18,3.46-34.23,17.69-65.92,40.62-91.28,28.24-31.22,63.72-47.65,104.46-52.63h26ZM644.13,158.53c0-49.21-39.89-89.11-89.11-89.11s-89.11,39.89-89.11,89.11,39.89,89.11,89.11,89.11,89.11-39.89,89.11-89.11Z"/>
</svg>