<?xml version="1.0" encoding="UTF-8"?>
<svg id="Livello_1" xmlns="http://www.w3.org/2000/svg" version="1.1" viewBox="0 0 1371 597">
  <!-- Generator: Adobe Illustrator 30.2.1, SVG Export Plug-In . SVG Version: 2.1.1 Build 1)  -->
  <defs>
    <style>
      .st0 {
        fill: #fff;
      }
    </style>
  </defs>
  <path class="st0" d="M1233,0c.93.68,2.96.73,5.06.84,77.63,4.25,126.11,47.59,132.03,126.17.12,1.59.42,3.36.9,3.98v336c-.48.61-.84,2.43-.95,3.96-3.77,52.85-29.47,98.14-81.06,116.04-13.42,4.66-26.7,7.61-41,9.08-1.58.16-3.36.48-3.99.92H127c-.64-.44-2.39-.75-4.01-.92-35.34-3.75-66.14-15.32-90.27-41.8-7.99-8.77-13.62-18.51-18.77-29.31C5.67,507.6,2.76,489.28.01,470.99V127c2.63-18.91,5.79-36.95,13.61-54.32,11.82-26.26,31.83-46.3,58.05-58.09C92.73,5.11,114.66,2.02,137,0h1096ZM167,345.33V84h-42.01l.02,261.55c1.66,11.77,10.37,19.42,21.55,19.43,10.24.01,19.41-7.98,20.43-19.66h.01ZM274.98,245.18l.04-161.18h-42.03l.05,161.58c1.05,12.28,9.88,20.78,21.45,20.5,11.57-.28,19.56-8.42,20.49-20.9h0ZM382.99,245.3l.02-161.3h-41.01v166.74c3.14,10.64,12.82,16.78,23.23,15.1s17.1-8.85,17.75-20.54h.01ZM490,249.28V84h-41.01l.03,163.59c1.72,10.92,9.55,17.76,19.56,18.44,10.21.7,19.14-5.51,21.42-16.75ZM597.76,250.24l.26-166.24h-41.04l.07,164.82c0,6,4.93,11.23,9.16,13.86,5.86,3.65,13.84,4.79,20.09,1.64,4.17-2.1,11.46-6.74,11.47-14.08h-.01ZM705.97,346.25l.04-262.25h-41.02l.09,263.57c0,5.66,4.79,11.44,8.3,13.6,7.3,4.51,14,5.24,21.72,1.55,5.02-2.4,10.87-8.12,10.87-16.48h0ZM814,248.41V83.99h-41.02l.04,165.28c2.32,8.23,6.44,13.42,14.02,15.75,12.23,3.76,25.14-2.73,26.96-16.63v.02ZM921.99,249.3V84h-41l.02,165.69c2.3,10.37,10.71,16.38,20.49,16.35,9.72-.03,18.36-5.83,20.49-16.73h0ZM1029.98,245.18l.04-161.18h-42.03l.04,162.58c1.56,11.83,10.4,19.81,21.47,19.51,11.14-.31,19.53-8.44,20.48-20.9h0ZM1137.89,246.19l.12-162.2h-42.03l.13,160.55c0,8.97,5.19,16.24,11.66,19.4,7.75,3.79,15.84,2.67,22.86-2.71,3.56-2.72,7.26-8.87,7.26-15.04h0ZM1245.01,341.32V84h-41.02l.13,264.59c0,7.75,7.58,12.75,12.3,14.79,6.99,3.02,14.47,1.84,20.62-2.55s7.97-11.23,7.97-19.51Z"/>
</svg>